<?xml version="1.0" encoding="UTF-8" standalone="no"?>
<!DOCTYPE svg PUBLIC "-//W3C//DTD SVG 1.1//EN"
 "http://www.w3.org/Graphics/SVG/1.1/DTD/svg11.dtd">
<!-- Generated by graphviz version 3.0.0 (20220226.1711)
 -->
<!-- Title: G Pages: 1 -->
<svg width="507pt" height="411pt"
 viewBox="0.00 0.00 507.00 411.00" xmlns="http://www.w3.org/2000/svg" xmlns:xlink="http://www.w3.org/1999/xlink">
<g id="graph0" class="graph" transform="scale(1 1) rotate(0) translate(4 407)">
<title>G</title>
<polygon fill="white" stroke="transparent" points="-4,4 -4,-407 503,-407 503,4 -4,4"/>
<g id="clust1" class="cluster">
<title>cluster_c1</title>
<g id="a_clust1"><a xlink:href="http://openprovenance.org/vargen#b" xlink:title="vargen:b">
<polygon fill="none" stroke="black" points="8,-8 8,-395 491,-395 491,-8 8,-8"/>
<text text-anchor="middle" x="249.5" y="-15.8" font-family="Times,serif" font-size="14.00">vargen:b</text>
</a>
</g>
</g>
<!-- n1 -->
<g id="node1" class="node">
<title>n1</title>
<g id="a_node1"><a xlink:href="http://openprovenance.org/var#dispatching" xlink:title="var:dispatching">
<polygon fill="#9fb1fc" stroke="#0000ff" points="330,-231 230,-231 230,-195 330,-195 330,-231"/>
<text text-anchor="middle" x="280" y="-209.3" font-family="Times,serif" font-size="14.00">var:dispatching</text>
</a>
</g>
</g>
<!-- n4 -->
<g id="node6" class="node">
<title>n4</title>
<g id="a_node6"><a xlink:href="http://openprovenance.org/var#from_action" xlink:title="var:from_action">
<ellipse fill="#fffc87" stroke="#808080" cx="280" cy="-296" rx="67.69" ry="18"/>
<text text-anchor="middle" x="280" y="-292.3" font-family="Times,serif" font-size="14.00">var:from_action</text>
</a>
</g>
</g>
<!-- n1&#45;&gt;n4 -->
<g id="edge14" class="edge">
<title>n1&#45;&gt;n4</title>
<path fill="none" stroke="#8b0000" d="M280,-231.18C280,-241.81 280,-255.69 280,-267.8"/>
<polygon fill="#8b0000" stroke="#8b0000" points="276.5,-267.85 280,-277.85 283.5,-267.85 276.5,-267.85"/>
<text text-anchor="middle" x="289.5" y="-252" font-family="Times,serif" font-size="10.00" fill="red">used</text>
</g>
<!-- b1 -->
<g id="node9" class="node">
<title>b1</title>
<ellipse fill="gray" stroke="gray" cx="167" cy="-296" rx="1.8" ry="1.8"/>
</g>
<!-- n1&#45;&gt;b1 -->
<g id="edge6" class="edge">
<title>n1&#45;&gt;b1</title>
<path fill="none" stroke="black" d="M247.26,-231.16C237.89,-236.5 227.83,-242.66 219,-249 196.28,-265.31 172.03,-289.84 167.69,-294.29"/>
<text text-anchor="middle" x="247.5" y="-252" font-family="Times,serif" font-size="10.00">wasStartedBy</text>
</g>
<!-- ann1 -->
<g id="node2" class="node">
<title>ann1</title>
<polygon fill="none" stroke="gray" points="355,-148 187,-148 187,-112 361,-112 361,-142 355,-148"/>
<polyline fill="none" stroke="gray" points="355,-148 355,-142 "/>
<polyline fill="none" stroke="gray" points="361,-142 355,-142 "/>
<g id="a_node2_0"><a xlink:href="http://www.w3.org/ns/prov#type" xlink:title="&lt;TABLE&gt;">
<text text-anchor="start" x="197" y="-127" font-family="Times,serif" font-size="10.00">prov:type</text>
</a>
</g>
<g id="a_node2_1"><a xlink:href="http://openprovenance.org/ns/rosplan#DispatchingPlanAction" xlink:title="&lt;TABLE&gt;">
<text text-anchor="start" x="239" y="-127" font-family="Times,serif" font-size="10.00">rpl:DispatchingPlanAction</text>
</a>
</g>
</g>
<!-- ann1&#45;&gt;n1 -->
<g id="edge1" class="edge">
<title>ann1&#45;&gt;n1</title>
<path fill="none" stroke="gray" stroke-dasharray="5,2" d="M284.28,-148.23C287.02,-153.72 289.61,-159.94 291,-166 293.21,-175.6 290.93,-186.31 287.89,-194.98"/>
</g>
<!-- n2 -->
<g id="node3" class="node">
<title>n2</title>
<g id="a_node3"><a xlink:href="http://openprovenance.org/var#trigger_action" xlink:title="var:trigger_action">
<ellipse fill="#fffc87" stroke="#808080" cx="143" cy="-369" rx="73.39" ry="18"/>
<text text-anchor="middle" x="143" y="-365.3" font-family="Times,serif" font-size="14.00">var:trigger_action</text>
</a>
</g>
</g>
<!-- n3 -->
<g id="node4" class="node">
<title>n3</title>
<g id="a_node4"><a xlink:href="http://openprovenance.org/var#message" xlink:title="var:message">
<ellipse fill="#fffc87" stroke="#808080" cx="114" cy="-130" rx="54.69" ry="18"/>
<text text-anchor="middle" x="114" y="-126.3" font-family="Times,serif" font-size="14.00">var:message</text>
</a>
</g>
</g>
<!-- n3&#45;&gt;n1 -->
<g id="edge5" class="edge">
<title>n3&#45;&gt;n1</title>
<path fill="none" stroke="darkgreen" d="M148.37,-144.15C163.76,-150.33 182,-158.08 198,-166 206.74,-170.33 208.51,-172.19 217,-177 224.43,-181.21 232.38,-185.67 240.04,-189.94"/>
<polygon fill="darkgreen" stroke="darkgreen" points="238.42,-193.04 248.86,-194.84 241.82,-186.92 238.42,-193.04"/>
<text text-anchor="middle" x="252" y="-169" font-family="Times,serif" font-size="10.00" fill="darkgreen">wasGeneratedBy</text>
</g>
<!-- b2 -->
<g id="node10" class="node">
<title>b2</title>
<ellipse fill="gray" stroke="gray" cx="133" cy="-213" rx="1.8" ry="1.8"/>
</g>
<!-- n3&#45;&gt;b2 -->
<g id="edge8" class="edge">
<title>n3&#45;&gt;b2</title>
<path fill="none" stroke="black" d="M118.03,-148.18C123.08,-169.73 131.27,-204.63 132.76,-210.99"/>
<text text-anchor="middle" x="159" y="-169" font-family="Times,serif" font-size="10.00">wasDerivedFrom</text>
</g>
<!-- b3 -->
<g id="node11" class="node">
<title>b3</title>
<ellipse fill="gray" stroke="gray" cx="119" cy="-254.5" rx="1.8" ry="1.8"/>
</g>
<!-- n3&#45;&gt;b3 -->
<g id="edge10" class="edge">
<title>n3&#45;&gt;b3</title>
<path fill="none" stroke="black" d="M73.98,-142.4C56.71,-149.77 41.72,-161.01 48,-177 63.63,-216.81 110.78,-248.23 118.05,-252.9"/>
<text text-anchor="middle" x="83" y="-169" font-family="Times,serif" font-size="10.00">wasDerivedFrom</text>
</g>
<!-- ann2 -->
<g id="node5" class="node">
<title>ann2</title>
<polygon fill="none" stroke="gray" points="196.5,-75 25.5,-75 25.5,-39 202.5,-39 202.5,-69 196.5,-75"/>
<polyline fill="none" stroke="gray" points="196.5,-75 196.5,-69 "/>
<polyline fill="none" stroke="gray" points="202.5,-69 196.5,-69 "/>
<g id="a_node5_2"><a xlink:href="http://www.w3.org/ns/prov#type" xlink:title="&lt;TABLE&gt;">
<text text-anchor="start" x="36" y="-61" font-family="Times,serif" font-size="10.00">prov:type</text>
</a>
</g>
<g id="a_node5_3"><a xlink:href="http://openprovenance.org/ns/ros#Message" xlink:title="&lt;TABLE&gt;">
<text text-anchor="start" x="78" y="-61" font-family="Times,serif" font-size="10.00">ros:Message</text>
</a>
</g>
<g id="a_node5_4"><a xlink:href="http://www.w3.org/ns/prov#type" xlink:title="&lt;TABLE&gt;">
<text text-anchor="start" x="36" y="-48" font-family="Times,serif" font-size="10.00">prov:type</text>
</a>
</g>
<g id="a_node5_5"><a xlink:href="http://openprovenance.org/ns/rosplan#ActionDispatchMessage" xlink:title="&lt;TABLE&gt;">
<text text-anchor="start" x="78" y="-48" font-family="Times,serif" font-size="10.00">rpl:ActionDispatchMessage</text>
</a>
</g>
</g>
<!-- ann2&#45;&gt;n3 -->
<g id="edge2" class="edge">
<title>ann2&#45;&gt;n3</title>
<path fill="none" stroke="gray" stroke-dasharray="5,2" d="M114,-75.19C114,-86.35 114,-100.84 114,-111.97"/>
</g>
<!-- n5 -->
<g id="node7" class="node">
<title>n5</title>
<g id="a_node7"><a xlink:href="http://openprovenance.org/var#action" xlink:title="var:action">
<ellipse fill="#fffc87" stroke="#808080" cx="425" cy="-130" rx="46.29" ry="18"/>
<text text-anchor="middle" x="425" y="-126.3" font-family="Times,serif" font-size="14.00">var:action</text>
</a>
</g>
</g>
<!-- n5&#45;&gt;n1 -->
<g id="edge4" class="edge">
<title>n5&#45;&gt;n1</title>
<path fill="none" stroke="darkgreen" d="M391.35,-142.51C375.33,-148.57 356.18,-156.68 340,-166 328.8,-172.45 317.34,-180.74 307.48,-188.5"/>
<polygon fill="darkgreen" stroke="darkgreen" points="305.2,-185.84 299.61,-194.84 309.6,-191.29 305.2,-185.84"/>
<text text-anchor="middle" x="375" y="-169" font-family="Times,serif" font-size="10.00" fill="darkgreen">wasGeneratedBy</text>
</g>
<!-- b4 -->
<g id="node12" class="node">
<title>b4</title>
<ellipse fill="gray" stroke="gray" cx="406" cy="-213" rx="1.8" ry="1.8"/>
</g>
<!-- n5&#45;&gt;b4 -->
<g id="edge12" class="edge">
<title>n5&#45;&gt;b4</title>
<path fill="none" stroke="black" d="M420.97,-148.18C415.92,-169.73 407.73,-204.63 406.24,-210.99"/>
<text text-anchor="middle" x="451" y="-169" font-family="Times,serif" font-size="10.00">wasDerivedFrom</text>
</g>
<!-- ann3 -->
<g id="node8" class="node">
<title>ann3</title>
<polygon fill="none" stroke="gray" points="467,-75 377,-75 377,-39 473,-39 473,-69 467,-75"/>
<polyline fill="none" stroke="gray" points="467,-75 467,-69 "/>
<polyline fill="none" stroke="gray" points="473,-69 467,-69 "/>
<g id="a_node8_6"><a xlink:href="http://www.w3.org/ns/prov#type" xlink:title="&lt;TABLE&gt;">
<text text-anchor="start" x="387" y="-54" font-family="Times,serif" font-size="10.00">prov:type</text>
</a>
</g>
<g id="a_node8_7"><a xlink:href="http://openprovenance.org/var#type" xlink:title="&lt;TABLE&gt;">
<text text-anchor="start" x="429" y="-54" font-family="Times,serif" font-size="10.00">var:type</text>
</a>
</g>
</g>
<!-- ann3&#45;&gt;n5 -->
<g id="edge3" class="edge">
<title>ann3&#45;&gt;n5</title>
<path fill="none" stroke="gray" stroke-dasharray="5,2" d="M425,-75.19C425,-86.35 425,-100.84 425,-111.97"/>
</g>
<!-- b1&#45;&gt;n2 -->
<g id="edge7" class="edge">
<title>b1&#45;&gt;n2</title>
<path fill="none" stroke="black" d="M166.73,-297.8C165.26,-302.14 158.07,-323.43 151.98,-341.43"/>
<polygon fill="black" stroke="black" points="148.64,-340.38 148.76,-350.97 155.27,-342.62 148.64,-340.38"/>
</g>
<!-- b2&#45;&gt;n4 -->
<g id="edge9" class="edge">
<title>b2&#45;&gt;n4</title>
<path fill="none" stroke="black" d="M133.92,-214.71C139.73,-219.22 172.08,-243.98 201,-260 211.66,-265.91 223.51,-271.59 234.73,-276.6"/>
<polygon fill="black" stroke="black" points="233.39,-279.83 243.95,-280.63 236.19,-273.42 233.39,-279.83"/>
</g>
<!-- b3&#45;&gt;n2 -->
<g id="edge11" class="edge">
<title>b3&#45;&gt;n2</title>
<path fill="none" stroke="black" d="M119.27,-256.76C121.01,-264.93 130.8,-310.82 137.25,-341.05"/>
<polygon fill="black" stroke="black" points="133.87,-341.96 139.37,-351.01 140.71,-340.5 133.87,-341.96"/>
</g>
<!-- b4&#45;&gt;n4 -->
<g id="edge13" class="edge">
<title>b4&#45;&gt;n4</title>
<path fill="none" stroke="black" d="M404.58,-214.91C395.72,-220.61 347.17,-251.82 313.36,-273.56"/>
<polygon fill="black" stroke="black" points="311.21,-270.78 304.69,-279.13 314.99,-276.67 311.21,-270.78"/>
</g>
</g>
</svg>
