<?xml version="1.0" encoding="UTF-8" standalone="no"?>
<!DOCTYPE svg PUBLIC "-//W3C//DTD SVG 1.1//EN"
 "http://www.w3.org/Graphics/SVG/1.1/DTD/svg11.dtd">
<!-- Generated by graphviz version 3.0.0 (20220226.1711)
 -->
<!-- Title: G Pages: 1 -->
<svg width="303pt" height="341pt"
 viewBox="0.00 0.00 303.00 341.00" xmlns="http://www.w3.org/2000/svg" xmlns:xlink="http://www.w3.org/1999/xlink">
<g id="graph0" class="graph" transform="scale(1 1) rotate(0) translate(4 337)">
<title>G</title>
<polygon fill="white" stroke="transparent" points="-4,4 -4,-337 299,-337 299,4 -4,4"/>
<g id="clust1" class="cluster">
<title>cluster_c1</title>
<g id="a_clust1"><a xlink:href="http://openprovenance.org/vargen#b" xlink:title="vargen:b">
<polygon fill="none" stroke="black" points="8,-8 8,-325 287,-325 287,-8 8,-8"/>
<text text-anchor="middle" x="147.5" y="-15.8" font-family="Times,serif" font-size="14.00">vargen:b</text>
</a>
</g>
</g>
<!-- n1 -->
<g id="node1" class="node">
<title>n1</title>
<g id="a_node1"><a xlink:href="http://openprovenance.org/var#message" xlink:title="var:message">
<ellipse fill="#fffc87" stroke="#808080" cx="71" cy="-299" rx="54.69" ry="18"/>
<text text-anchor="middle" x="71" y="-295.3" font-family="Times,serif" font-size="14.00">var:message</text>
</a>
</g>
</g>
<!-- ann1 -->
<g id="node2" class="node">
<title>ann1</title>
<polygon fill="none" stroke="gray" points="226,-244 38,-244 38,-195 232,-195 232,-238 226,-244"/>
<polyline fill="none" stroke="gray" points="226,-244 226,-238 "/>
<polyline fill="none" stroke="gray" points="232,-238 226,-238 "/>
<g id="a_node2_0"><a xlink:href="http://www.w3.org/ns/prov#type" xlink:title="&lt;TABLE&gt;">
<text text-anchor="start" x="48" y="-229.5" font-family="Times,serif" font-size="10.00">prov:type</text>
</a>
</g>
<g id="a_node2_1"><a xlink:href="http://openprovenance.org/ns/ros#Message" xlink:title="&lt;TABLE&gt;">
<text text-anchor="start" x="104" y="-229.5" font-family="Times,serif" font-size="10.00">ros:Message</text>
</a>
</g>
<g id="a_node2_2"><a xlink:href="http://www.w3.org/ns/prov#type" xlink:title="&lt;TABLE&gt;">
<text text-anchor="start" x="48" y="-216.5" font-family="Times,serif" font-size="10.00">prov:type</text>
</a>
</g>
<g id="a_node2_3"><a xlink:href="http://openprovenance.org/ns/rosplan#ActionFeedbackMessage" xlink:title="&lt;TABLE&gt;">
<text text-anchor="start" x="104" y="-216.5" font-family="Times,serif" font-size="10.00">rpl:ActionFeedbackMessage</text>
</a>
</g>
<g id="a_node2_4"><a xlink:href="http://openprovenance.org/ns/rosplan#action_id" xlink:title="&lt;TABLE&gt;">
<text text-anchor="start" x="48" y="-203.5" font-family="Times,serif" font-size="10.00">rpl:action_id</text>
</a>
</g>
<g id="a_node2_5"><a xlink:href="http://openprovenance.org/var#action_id" xlink:title="&lt;TABLE&gt;">
<text text-anchor="start" x="104" y="-203.5" font-family="Times,serif" font-size="10.00">var:action_id</text>
</a>
</g>
</g>
<!-- ann1&#45;&gt;n1 -->
<g id="edge1" class="edge">
<title>ann1&#45;&gt;n1</title>
<path fill="none" stroke="gray" stroke-dasharray="5,2" d="M115.45,-244.17C105.6,-256.1 93.88,-270.29 84.95,-281.11"/>
</g>
<!-- n2 -->
<g id="node3" class="node">
<title>n2</title>
<g id="a_node3"><a xlink:href="http://openprovenance.org/var#from_action" xlink:title="var:from_action">
<ellipse fill="#fffc87" stroke="#808080" cx="211" cy="-299" rx="67.69" ry="18"/>
<text text-anchor="middle" x="211" y="-295.3" font-family="Times,serif" font-size="14.00">var:from_action</text>
</a>
</g>
</g>
<!-- n3 -->
<g id="node4" class="node">
<title>n3</title>
<g id="a_node4"><a xlink:href="http://openprovenance.org/var#action" xlink:title="var:action">
<ellipse fill="#fffc87" stroke="#808080" cx="95" cy="-130" rx="46.29" ry="18"/>
<text text-anchor="middle" x="95" y="-126.3" font-family="Times,serif" font-size="14.00">var:action</text>
</a>
</g>
</g>
<!-- b1 -->
<g id="node6" class="node">
<title>b1</title>
<ellipse fill="gray" stroke="gray" cx="18" cy="-219.5" rx="1.8" ry="1.8"/>
</g>
<!-- n3&#45;&gt;b1 -->
<g id="edge3" class="edge">
<title>n3&#45;&gt;b1</title>
<path fill="none" stroke="black" d="M75.52,-146.54C61.29,-158.62 42.25,-176.41 29,-195 23.35,-202.92 19.4,-214.21 18.31,-217.54"/>
<text text-anchor="middle" x="88" y="-169" font-family="Times,serif" font-size="10.00">wasDerivedFrom</text>
</g>
<!-- b2 -->
<g id="node7" class="node">
<title>b2</title>
<ellipse fill="gray" stroke="gray" cx="252" cy="-219.5" rx="1.8" ry="1.8"/>
</g>
<!-- n3&#45;&gt;b2 -->
<g id="edge5" class="edge">
<title>n3&#45;&gt;b2</title>
<path fill="none" stroke="black" d="M133.76,-139.83C165.97,-148.91 211.19,-165.91 241,-195 247.96,-201.79 251.01,-213.85 251.79,-217.46"/>
<text text-anchor="middle" x="252" y="-169" font-family="Times,serif" font-size="10.00">wasDerivedFrom</text>
</g>
<!-- ann2 -->
<g id="node5" class="node">
<title>ann2</title>
<polygon fill="none" stroke="gray" points="137,-75 47,-75 47,-39 143,-39 143,-69 137,-75"/>
<polyline fill="none" stroke="gray" points="137,-75 137,-69 "/>
<polyline fill="none" stroke="gray" points="143,-69 137,-69 "/>
<g id="a_node5_6"><a xlink:href="http://www.w3.org/ns/prov#type" xlink:title="&lt;TABLE&gt;">
<text text-anchor="start" x="57" y="-54" font-family="Times,serif" font-size="10.00">prov:type</text>
</a>
</g>
<g id="a_node5_7"><a xlink:href="http://openprovenance.org/var#type" xlink:title="&lt;TABLE&gt;">
<text text-anchor="start" x="99" y="-54" font-family="Times,serif" font-size="10.00">var:type</text>
</a>
</g>
</g>
<!-- ann2&#45;&gt;n3 -->
<g id="edge2" class="edge">
<title>ann2&#45;&gt;n3</title>
<path fill="none" stroke="gray" stroke-dasharray="5,2" d="M95,-75.19C95,-86.35 95,-100.84 95,-111.97"/>
</g>
<!-- b1&#45;&gt;n1 -->
<g id="edge4" class="edge">
<title>b1&#45;&gt;n1</title>
<path fill="none" stroke="black" d="M18.35,-221.43C19.58,-224.68 23.92,-235.7 29,-244 35.17,-254.08 42.89,-264.49 50.03,-273.44"/>
<polygon fill="black" stroke="black" points="47.32,-275.66 56.35,-281.2 52.75,-271.24 47.32,-275.66"/>
</g>
<!-- b2&#45;&gt;n2 -->
<g id="edge6" class="edge">
<title>b2&#45;&gt;n2</title>
<path fill="none" stroke="black" d="M251.6,-221.41C250.21,-224.56 245.43,-235.34 241,-244 236.22,-253.36 230.7,-263.46 225.72,-272.37"/>
<polygon fill="black" stroke="black" points="222.63,-270.71 220.76,-281.14 228.73,-274.15 222.63,-270.71"/>
</g>
</g>
</svg>
