<?xml version="1.0" encoding="UTF-8" standalone="no"?>
<!DOCTYPE svg PUBLIC "-//W3C//DTD SVG 1.1//EN"
 "http://www.w3.org/Graphics/SVG/1.1/DTD/svg11.dtd">
<!-- Generated by graphviz version 3.0.0 (20220226.1711)
 -->
<!-- Title: G Pages: 1 -->
<svg width="303pt" height="465pt"
 viewBox="0.00 0.00 303.00 464.60" xmlns="http://www.w3.org/2000/svg" xmlns:xlink="http://www.w3.org/1999/xlink">
<g id="graph0" class="graph" transform="scale(1 1) rotate(0) translate(4 460.6)">
<title>G</title>
<polygon fill="white" stroke="transparent" points="-4,4 -4,-460.6 299,-460.6 299,4 -4,4"/>
<g id="clust1" class="cluster">
<title>cluster_c1</title>
<g id="a_clust1"><a xlink:href="http://openprovenance.org/vargen#b" xlink:title="vargen:b">
<polygon fill="none" stroke="black" points="8,-8 8,-448.6 287,-448.6 287,-8 8,-8"/>
<text text-anchor="middle" x="147.5" y="-15.8" font-family="Times,serif" font-size="14.00">vargen:b</text>
</a>
</g>
</g>
<!-- n1 -->
<g id="node1" class="node">
<title>n1</title>
<g id="a_node1"><a xlink:href="http://openprovenance.org/var#message" xlink:title="var:message">
<ellipse fill="#fffc87" stroke="#808080" cx="71" cy="-299" rx="54.69" ry="18"/>
<text text-anchor="middle" x="71" y="-295.3" font-family="Times,serif" font-size="14.00">var:message</text>
</a>
</g>
</g>
<!-- b1 -->
<g id="node7" class="node">
<title>b1</title>
<ellipse fill="gray" stroke="gray" cx="79" cy="-365.8" rx="1.8" ry="1.8"/>
</g>
<!-- n1&#45;&gt;b1 -->
<g id="edge3" class="edge">
<title>n1&#45;&gt;b1</title>
<path fill="none" stroke="black" d="M73.1,-317.03C75.18,-333.82 78.14,-357.8 78.84,-363.53"/>
<text text-anchor="middle" x="111" y="-338" font-family="Times,serif" font-size="10.00">wasDerivedFrom</text>
</g>
<!-- ann1 -->
<g id="node2" class="node">
<title>ann1</title>
<polygon fill="none" stroke="gray" points="226,-244 38,-244 38,-195 232,-195 232,-238 226,-244"/>
<polyline fill="none" stroke="gray" points="226,-244 226,-238 "/>
<polyline fill="none" stroke="gray" points="232,-238 226,-238 "/>
<g id="a_node2_0"><a xlink:href="http://www.w3.org/ns/prov#type" xlink:title="&lt;TABLE&gt;">
<text text-anchor="start" x="48" y="-229.5" font-family="Times,serif" font-size="10.00">prov:type</text>
</a>
</g>
<g id="a_node2_1"><a xlink:href="http://openprovenance.org/ns/ros#Message" xlink:title="&lt;TABLE&gt;">
<text text-anchor="start" x="104" y="-229.5" font-family="Times,serif" font-size="10.00">ros:Message</text>
</a>
</g>
<g id="a_node2_2"><a xlink:href="http://www.w3.org/ns/prov#type" xlink:title="&lt;TABLE&gt;">
<text text-anchor="start" x="48" y="-216.5" font-family="Times,serif" font-size="10.00">prov:type</text>
</a>
</g>
<g id="a_node2_3"><a xlink:href="http://openprovenance.org/ns/rosplan#ActionFeedbackMessage" xlink:title="&lt;TABLE&gt;">
<text text-anchor="start" x="104" y="-216.5" font-family="Times,serif" font-size="10.00">rpl:ActionFeedbackMessage</text>
</a>
</g>
<g id="a_node2_4"><a xlink:href="http://openprovenance.org/ns/rosplan#action_id" xlink:title="&lt;TABLE&gt;">
<text text-anchor="start" x="48" y="-203.5" font-family="Times,serif" font-size="10.00">rpl:action_id</text>
</a>
</g>
<g id="a_node2_5"><a xlink:href="http://openprovenance.org/var#action_id" xlink:title="&lt;TABLE&gt;">
<text text-anchor="start" x="104" y="-203.5" font-family="Times,serif" font-size="10.00">var:action_id</text>
</a>
</g>
</g>
<!-- ann1&#45;&gt;n1 -->
<g id="edge1" class="edge">
<title>ann1&#45;&gt;n1</title>
<path fill="none" stroke="gray" stroke-dasharray="5,2" d="M115.45,-244.17C105.6,-256.1 93.88,-270.29 84.95,-281.11"/>
</g>
<!-- n2 -->
<g id="node3" class="node">
<title>n2</title>
<g id="a_node3"><a xlink:href="http://openprovenance.org/var#from_action" xlink:title="var:from_action">
<ellipse fill="#fffc87" stroke="#808080" cx="211" cy="-299" rx="67.69" ry="18"/>
<text text-anchor="middle" x="211" y="-295.3" font-family="Times,serif" font-size="14.00">var:from_action</text>
</a>
</g>
</g>
<!-- n3 -->
<g id="node4" class="node">
<title>n3</title>
<g id="a_node4"><a xlink:href="http://openprovenance.org/var#from_message" xlink:title="var:from_message">
<ellipse fill="#fffc87" stroke="#808080" cx="93" cy="-422.6" rx="76.89" ry="18"/>
<text text-anchor="middle" x="93" y="-418.9" font-family="Times,serif" font-size="14.00">var:from_message</text>
</a>
</g>
</g>
<!-- n4 -->
<g id="node5" class="node">
<title>n4</title>
<g id="a_node5"><a xlink:href="http://openprovenance.org/var#action" xlink:title="var:action">
<ellipse fill="#fffc87" stroke="#808080" cx="107" cy="-130" rx="46.29" ry="18"/>
<text text-anchor="middle" x="107" y="-126.3" font-family="Times,serif" font-size="14.00">var:action</text>
</a>
</g>
</g>
<!-- b2 -->
<g id="node8" class="node">
<title>b2</title>
<ellipse fill="gray" stroke="gray" cx="18" cy="-219.5" rx="1.8" ry="1.8"/>
</g>
<!-- n4&#45;&gt;b2 -->
<g id="edge5" class="edge">
<title>n4&#45;&gt;b2</title>
<path fill="none" stroke="black" d="M83.81,-145.84C66.91,-157.57 44.37,-175.22 29,-195 23.03,-202.68 19.3,-214.13 18.28,-217.52"/>
<text text-anchor="middle" x="90" y="-169" font-family="Times,serif" font-size="10.00">wasDerivedFrom</text>
</g>
<!-- b3 -->
<g id="node9" class="node">
<title>b3</title>
<ellipse fill="gray" stroke="gray" cx="252" cy="-219.5" rx="1.8" ry="1.8"/>
</g>
<!-- n4&#45;&gt;b3 -->
<g id="edge7" class="edge">
<title>n4&#45;&gt;b3</title>
<path fill="none" stroke="black" d="M143.78,-141C173.26,-150.64 214.03,-167.82 241,-195 247.85,-201.91 250.97,-213.89 251.78,-217.46"/>
<text text-anchor="middle" x="251" y="-169" font-family="Times,serif" font-size="10.00">wasDerivedFrom</text>
</g>
<!-- ann2 -->
<g id="node6" class="node">
<title>ann2</title>
<polygon fill="none" stroke="gray" points="173,-75 35,-75 35,-39 179,-39 179,-69 173,-75"/>
<polyline fill="none" stroke="gray" points="173,-75 173,-69 "/>
<polyline fill="none" stroke="gray" points="179,-69 173,-69 "/>
<g id="a_node6_6"><a xlink:href="http://www.w3.org/ns/prov#type" xlink:title="&lt;TABLE&gt;">
<text text-anchor="start" x="45" y="-54" font-family="Times,serif" font-size="10.00">prov:type</text>
</a>
</g>
<g id="a_node6_7"><a xlink:href="http://openprovenance.org/ns/rosplan#ReceivedAction" xlink:title="&lt;TABLE&gt;">
<text text-anchor="start" x="87" y="-54" font-family="Times,serif" font-size="10.00">rpl:ReceivedAction</text>
</a>
</g>
</g>
<!-- ann2&#45;&gt;n4 -->
<g id="edge2" class="edge">
<title>ann2&#45;&gt;n4</title>
<path fill="none" stroke="gray" stroke-dasharray="5,2" d="M107,-75.19C107,-86.35 107,-100.84 107,-111.97"/>
</g>
<!-- b1&#45;&gt;n3 -->
<g id="edge4" class="edge">
<title>b1&#45;&gt;n3</title>
<path fill="none" stroke="black" d="M79.24,-367.75C80.1,-371.11 83.11,-382.87 86.09,-394.55"/>
<polygon fill="black" stroke="black" points="82.78,-395.75 88.65,-404.58 89.57,-394.02 82.78,-395.75"/>
</g>
<!-- b2&#45;&gt;n1 -->
<g id="edge6" class="edge">
<title>b2&#45;&gt;n1</title>
<path fill="none" stroke="black" d="M18.35,-221.43C19.58,-224.68 23.92,-235.7 29,-244 35.17,-254.08 42.89,-264.49 50.03,-273.44"/>
<polygon fill="black" stroke="black" points="47.32,-275.66 56.35,-281.2 52.75,-271.24 47.32,-275.66"/>
</g>
<!-- b3&#45;&gt;n2 -->
<g id="edge8" class="edge">
<title>b3&#45;&gt;n2</title>
<path fill="none" stroke="black" d="M251.6,-221.41C250.21,-224.56 245.43,-235.34 241,-244 236.22,-253.36 230.7,-263.46 225.72,-272.37"/>
<polygon fill="black" stroke="black" points="222.63,-270.71 220.76,-281.14 228.73,-274.15 222.63,-270.71"/>
</g>
</g>
</svg>
