<?xml version="1.0" encoding="UTF-8" standalone="no"?>
<!DOCTYPE svg PUBLIC "-//W3C//DTD SVG 1.1//EN"
 "http://www.w3.org/Graphics/SVG/1.1/DTD/svg11.dtd">
<!-- Generated by graphviz version 3.0.0 (20220226.1711)
 -->
<!-- Title: G Pages: 1 -->
<svg width="447pt" height="320pt"
 viewBox="0.00 0.00 447.00 320.00" xmlns="http://www.w3.org/2000/svg" xmlns:xlink="http://www.w3.org/1999/xlink">
<g id="graph0" class="graph" transform="scale(1 1) rotate(0) translate(4 316)">
<title>G</title>
<polygon fill="white" stroke="transparent" points="-4,4 -4,-316 443,-316 443,4 -4,4"/>
<g id="clust1" class="cluster">
<title>cluster_c1</title>
<g id="a_clust1"><a xlink:href="http://openprovenance.org/vargen#b" xlink:title="vargen:b">
<polygon fill="none" stroke="black" points="8,-8 8,-304 431,-304 431,-8 8,-8"/>
<text text-anchor="middle" x="219.5" y="-15.8" font-family="Times,serif" font-size="14.00">vargen:b</text>
</a>
</g>
</g>
<!-- n1 -->
<g id="node1" class="node">
<title>n1</title>
<g id="a_node1"><a xlink:href="http://openprovenance.org/var#plan" xlink:title="var:plan">
<ellipse fill="#fffc87" stroke="#808080" cx="383" cy="-162.5" rx="39.79" ry="18"/>
<text text-anchor="middle" x="383" y="-158.8" font-family="Times,serif" font-size="14.00">var:plan</text>
</a>
</g>
</g>
<!-- n2 -->
<g id="node3" class="node">
<title>n2</title>
<g id="a_node3"><a xlink:href="http://openprovenance.org/var#action_generic" xlink:title="var:action_generic">
<ellipse fill="#fffc87" stroke="#808080" cx="226" cy="-278" rx="76.09" ry="18"/>
<text text-anchor="middle" x="226" y="-274.3" font-family="Times,serif" font-size="14.00">var:action_generic</text>
</a>
</g>
</g>
<!-- n1&#45;&gt;n2 -->
<g id="edge4" class="edge">
<title>n1&#45;&gt;n2</title>
<path fill="none" stroke="black" d="M369.28,-179.76C360.17,-189.99 347.61,-203.09 335,-213 313.8,-229.65 287.86,-245.06 266.6,-256.58"/>
<polygon fill="black" stroke="black" points="264.67,-253.64 257.5,-261.43 267.97,-259.81 264.67,-253.64"/>
<text text-anchor="middle" x="333.5" y="-234" font-family="Times,serif" font-size="10.00">hadMember</text>
</g>
<!-- ann1 -->
<g id="node2" class="node">
<title>ann1</title>
<polygon fill="none" stroke="gray" points="416.5,-75 327.5,-75 327.5,-39 422.5,-39 422.5,-69 416.5,-75"/>
<polyline fill="none" stroke="gray" points="416.5,-75 416.5,-69 "/>
<polyline fill="none" stroke="gray" points="422.5,-69 416.5,-69 "/>
<g id="a_node2_0"><a xlink:href="http://www.w3.org/ns/prov#type" xlink:title="&lt;TABLE&gt;">
<text text-anchor="start" x="338" y="-54" font-family="Times,serif" font-size="10.00">prov:type</text>
</a>
</g>
<g id="a_node2_1"><a xlink:href="http://openprovenance.org/ns/rosplan#Plan" xlink:title="&lt;TABLE&gt;">
<text text-anchor="start" x="380" y="-54" font-family="Times,serif" font-size="10.00">rpl:Plan</text>
</a>
</g>
</g>
<!-- ann1&#45;&gt;n1 -->
<g id="edge1" class="edge">
<title>ann1&#45;&gt;n1</title>
<path fill="none" stroke="gray" stroke-dasharray="5,2" d="M376.32,-75.09C377.8,-94.27 380.19,-125.2 381.68,-144.38"/>
</g>
<!-- ann2 -->
<g id="node4" class="node">
<title>ann2</title>
<polygon fill="none" stroke="gray" points="319.5,-213 126.5,-213 126.5,-112 325.5,-112 325.5,-207 319.5,-213"/>
<polyline fill="none" stroke="gray" points="319.5,-213 319.5,-207 "/>
<polyline fill="none" stroke="gray" points="325.5,-207 319.5,-207 "/>
<g id="a_node4_2"><a xlink:href="http://www.w3.org/ns/prov#type" xlink:title="&lt;TABLE&gt;">
<text text-anchor="start" x="137" y="-198.5" font-family="Times,serif" font-size="10.00">prov:type</text>
</a>
</g>
<g id="a_node4_3"><a xlink:href="http://openprovenance.org/ns/rosplan#Action" xlink:title="&lt;TABLE&gt;">
<text text-anchor="start" x="242" y="-198.5" font-family="Times,serif" font-size="10.00">rpl:Action</text>
</a>
</g>
<g id="a_node4_4"><a xlink:href="http://www.w3.org/ns/prov#type" xlink:title="&lt;TABLE&gt;">
<text text-anchor="start" x="137" y="-185.5" font-family="Times,serif" font-size="10.00">prov:type</text>
</a>
</g>
<g id="a_node4_5"><a xlink:href="http://openprovenance.org/var#action_type" xlink:title="&lt;TABLE&gt;">
<text text-anchor="start" x="242" y="-185.5" font-family="Times,serif" font-size="10.00">var:action_type</text>
</a>
</g>
<g id="a_node4_6"><a xlink:href="http://openprovenance.org/ns/rosplan#action_dispatch_time" xlink:title="&lt;TABLE&gt;">
<text text-anchor="start" x="137" y="-172.5" font-family="Times,serif" font-size="10.00">rpl:action_dispatch_time</text>
</a>
</g>
<g id="a_node4_7"><a xlink:href="http://openprovenance.org/var#dispatch_time" xlink:title="&lt;TABLE&gt;">
<text text-anchor="start" x="242" y="-172.5" font-family="Times,serif" font-size="10.00">var:dispatch_time</text>
</a>
</g>
<g id="a_node4_8"><a xlink:href="http://openprovenance.org/ns/rosplan#action_duration" xlink:title="&lt;TABLE&gt;">
<text text-anchor="start" x="137" y="-159.5" font-family="Times,serif" font-size="10.00">rpl:action_duration</text>
</a>
</g>
<g id="a_node4_9"><a xlink:href="http://openprovenance.org/var#duration" xlink:title="&lt;TABLE&gt;">
<text text-anchor="start" x="242" y="-159.5" font-family="Times,serif" font-size="10.00">var:duration</text>
</a>
</g>
<g id="a_node4_10"><a xlink:href="http://openprovenance.org/ns/rosplan#action_id" xlink:title="&lt;TABLE&gt;">
<text text-anchor="start" x="137" y="-146.5" font-family="Times,serif" font-size="10.00">rpl:action_id</text>
</a>
</g>
<g id="a_node4_11"><a xlink:href="http://openprovenance.org/var#action_id" xlink:title="&lt;TABLE&gt;">
<text text-anchor="start" x="242" y="-146.5" font-family="Times,serif" font-size="10.00">var:action_id</text>
</a>
</g>
<g id="a_node4_12"><a xlink:href="http://openprovenance.org/ns/rosplan#action_parameters" xlink:title="&lt;TABLE&gt;">
<text text-anchor="start" x="137" y="-133.5" font-family="Times,serif" font-size="10.00">rpl:action_parameters</text>
</a>
</g>
<g id="a_node4_13"><a xlink:href="http://openprovenance.org/var#parameters" xlink:title="&lt;TABLE&gt;">
<text text-anchor="start" x="242" y="-133.5" font-family="Times,serif" font-size="10.00">var:parameters</text>
</a>
</g>
<g id="a_node4_14"><a xlink:href="http://openprovenance.org/ns/rosplan#action_subject" xlink:title="&lt;TABLE&gt;">
<text text-anchor="start" x="137" y="-120.5" font-family="Times,serif" font-size="10.00">rpl:action_subject</text>
</a>
</g>
<g id="a_node4_15"><a xlink:href="http://openprovenance.org/var#subject" xlink:title="&lt;TABLE&gt;">
<text text-anchor="start" x="242" y="-120.5" font-family="Times,serif" font-size="10.00">var:subject</text>
</a>
</g>
</g>
<!-- ann2&#45;&gt;n2 -->
<g id="edge2" class="edge">
<title>ann2&#45;&gt;n2</title>
<path fill="none" stroke="gray" stroke-dasharray="5,2" d="M226,-213.28C226,-229.96 226,-247.45 226,-259.88"/>
</g>
<!-- n3 -->
<g id="node5" class="node">
<title>n3</title>
<g id="a_node5"><a xlink:href="http://openprovenance.org/var#action" xlink:title="var:action">
<ellipse fill="#fffc87" stroke="#808080" cx="62" cy="-162.5" rx="46.29" ry="18"/>
<text text-anchor="middle" x="62" y="-158.8" font-family="Times,serif" font-size="14.00">var:action</text>
</a>
</g>
</g>
<!-- n3&#45;&gt;n2 -->
<g id="edge5" class="edge">
<title>n3&#45;&gt;n2</title>
<path fill="none" stroke="black" d="M77.84,-179.48C95.34,-196.53 124.92,-223.55 154,-242 162.71,-247.53 172.43,-252.79 181.83,-257.48"/>
<polygon fill="black" stroke="black" points="180.56,-260.76 191.09,-261.97 183.62,-254.46 180.56,-260.76"/>
<text text-anchor="middle" x="188" y="-234" font-family="Times,serif" font-size="10.00">specializationOf</text>
</g>
<!-- ann3 -->
<g id="node6" class="node">
<title>ann3</title>
<polygon fill="none" stroke="gray" points="106,-75 16,-75 16,-39 112,-39 112,-69 106,-75"/>
<polyline fill="none" stroke="gray" points="106,-75 106,-69 "/>
<polyline fill="none" stroke="gray" points="112,-69 106,-69 "/>
<g id="a_node6_16"><a xlink:href="http://www.w3.org/ns/prov#type" xlink:title="&lt;TABLE&gt;">
<text text-anchor="start" x="26" y="-54" font-family="Times,serif" font-size="10.00">prov:type</text>
</a>
</g>
<g id="a_node6_17"><a xlink:href="http://openprovenance.org/var#type" xlink:title="&lt;TABLE&gt;">
<text text-anchor="start" x="68" y="-54" font-family="Times,serif" font-size="10.00">var:type</text>
</a>
</g>
</g>
<!-- ann3&#45;&gt;n3 -->
<g id="edge3" class="edge">
<title>ann3&#45;&gt;n3</title>
<path fill="none" stroke="gray" stroke-dasharray="5,2" d="M63.67,-75.09C63.3,-94.27 62.7,-125.2 62.33,-144.38"/>
</g>
</g>
</svg>
